<mxfile host="app.diagrams.net" modified="2024-01-25T13:31:09.125Z" agent="Mozilla/5.0 (Macintosh; Intel Mac OS X 10_15_7) AppleWebKit/537.36 (KHTML, like Gecko) Chrome/120.0.0.0 Safari/537.36" version="21.6.8" etag="TkXuefXY_FNrOBUUC_JP" type="github">
  <diagram name="第 1 页" id="Y9JmWFXMuCyn7DEF_1J0">
    <mxGraphModel>
      <root>
        <mxCell id="0" />
        <mxCell id="1" parent="0" />
      </root>
    </mxGraphModel>
  </diagram>
</mxfile>
